<svg id="Layer_1" data-name="Layer 1" xmlns="http://www.w3.org/2000/svg" viewBox="0 0 96.85 83.49"><defs><style>.cls-1{fill:#fbb03b;}</style></defs><title>arrow</title><path class="cls-1" d="M2.22,9c-1.66,19.72,12.53,36.33,28,46.57,18.6,12.28,41,17.91,62.46,22.72V68.65Q68.54,72.13,44.84,78c-6.36,1.57-3.56,10.66,2.66,9.64q23.34-3.81,46.21-9.83c2.91-.77,4.86-4.68,3-7.34-7.1-10-11.84-21.35-12.85-33.68-.53-6.37-10.53-6.42-10,0A77.61,77.61,0,0,0,88.06,75.48l3-7.34q-22.86,6-46.21,9.83l2.66,9.64q23.7-5.83,47.87-9.32c4.95-.72,4.57-8.62,0-9.64-19.14-4.29-38.73-9.12-55.81-19.08C25.13,41.16,10.71,27,12.22,9c.54-6.42-9.46-6.38-10,0Z" transform="translate(-2.09 -4.2)"/></svg>